<mxfile host="app.diagrams.net" modified="2024-05-04T10:04:20.915Z" agent="Mozilla/5.0 (Windows NT 10.0; Win64; x64) AppleWebKit/537.36 (KHTML, like Gecko) Chrome/122.0.0.0 Safari/537.36" etag="BoqPYIIYqJ9DCcELwaT6" version="24.3.1" type="github">
  <diagram name="Page-1" id="b5b7bab2-c9e2-2cf4-8b2a-24fd1a2a6d21">
    <mxGraphModel dx="1877" dy="522" grid="1" gridSize="10" guides="1" tooltips="1" connect="1" arrows="1" fold="1" page="1" pageScale="1" pageWidth="827" pageHeight="1169" background="none" math="0" shadow="0">
      <root>
        <mxCell id="0" />
        <mxCell id="1" parent="0" />
        <mxCell id="_FwA0yZikW31yTaf9PdV-43" value="" style="rounded=0;whiteSpace=wrap;html=1;" vertex="1" parent="1">
          <mxGeometry x="435" y="290" width="125" height="210" as="geometry" />
        </mxCell>
        <mxCell id="_FwA0yZikW31yTaf9PdV-1" value="" style="shape=image;imageAspect=0;aspect=fixed;verticalLabelPosition=bottom;verticalAlign=top;image=data:image/svg+xml,PHN2ZyB4bWxuczp4bGluaz0iaHR0cDovL3d3dy53My5vcmcvMTk5OS94bGluayIgeG1sbnM9Imh0dHA6Ly93d3cudzMub3JnLzIwMDAvc3ZnIiBoZWlnaHQ9IjIwMCIgd2lkdGg9IjIwMCIgdmVyc2lvbj0iMS4xIiB2aWV3Qm94PSIwIDAgMTAyNCAxMDI0IiBjbGFzcz0iaWNvbiI+PHBhdGggZD0iTTM1MS45MjAzMTcgNzM2LjI4OTA0OGwzODQuNDgxMjI3LTM4NC40ODEyMjZjMTguNTk5MDkyLTE4LjU5OTA5MiAxOC41OTkwOTItNDkuMTk3NTk4IDAtNjcuNzk2NjktMTguNTk5MDkyLTE4LjU5OTA5Mi00OS4xOTc1OTgtMTguNTk5MDkyLTY3Ljc5NjY5IDBMMjg0LjEyMzYyNyA2NjguNDkyMzU5Yy0xOC41OTkwOTIgMTguNTk5MDkyLTE4LjU5OTA5MiA0OS4xOTc1OTggMCA2Ny43OTY2ODkgMTguNDk5MDk3IDE4LjU5OTA5MiA0OC45OTc2MDggMTguNTk5MDkyIDY3Ljc5NjY5IDB6Ii8+PHBhdGggZD0iTTQ3OC44MTQxMjEgNjY5Ljc5MjI5NWM2Ljc5OTY2OCA5LjM5OTU0MSA3Ljg5OTYxNCAxOS4yOTkwNTggNy44OTk2MTQgMjQuODk4Nzg1IDAgNi41OTk2NzgtMS41OTk5MjIgMTkuMzk5MDUzLTEyLjM5OTM5NCAzMC4xOTg1MjVMMjcyLjcyNDE4NCA5MjYuMjc5NzcxYy0xMC43OTk0NzMgMTAuNzk5NDczLTIzLjM5ODg1NyAxMi4zOTkzOTUtMzAuMTk4NTI1IDEyLjM5OTM5NS02LjU5OTY3OCAwLTE5LjM5OTA1My0xLjU5OTkyMi0zMC4xOTg1MjYtMTIuMzk5Mzk1TDk3LjczMjcyOSA4MTEuNjg1MzY3Yy0xMC43OTk0NzMtMTAuNzk5NDczLTEyLjM5OTM5NS0yMy4zOTg4NTctMTIuMzk5Mzk1LTMwLjE5ODUyNiAwLTYuNzk5NjY4IDEuNTk5OTIyLTE5LjM5OTA1MyAxMi4zOTkzOTUtMzAuMTk4NTI1bDIwMS40OTAxNjEtMjAxLjQ5MDE2MmMxMC43OTk0NzMtMTAuNzk5NDczIDIzLjM5ODg1Ny0xMi4zOTkzOTUgMzAuMTk4NTI2LTEyLjM5OTM5NCA0LjY5OTc3MSAwIDEyLjM5OTM5NSAwLjg5OTk1NiAyMC4xOTkwMTMgNC44OTk3NjFsNjEuMTk3MDEyLTYxLjE5NzAxMmMtNTAuMDk3NTU0LTQxLjM5Nzk3OS0xMjQuOTkzODk3LTM4LjY5ODExLTE3MS45OTE2MDIgOC4xOTk1OTlMMzcuNDM1NjczIDY5MC45OTEyNmMtNDkuODk3NTY0IDQ5Ljg5NzU2NC00OS44OTc1NjQgMTMxLjE5MzU5NCAwIDE4MC44OTExNjhsMTE0LjY5NDM5OSAxMTQuNjk0Mzk5YzQ5Ljg5NzU2NCA0OS44OTc1NjQgMTMxLjE5MzU5NCA0OS44OTc1NjQgMTgwLjg5MTE2OCAwbDIwMS40OTAxNjEtMjAxLjQ5MDE2MWM0Ny45OTc2NTYtNDcuOTk3NjU2IDQ5LjY5NzU3My0xMjUuODkzODUzIDQuNzk5NzY2LTE3NS45OTE0MDdsLTYwLjQ5NzA0NiA2MC42OTcwMzZ6TTk4Ni41ODkzMjcgMTUyLjExNzU3Mkw4NzEuODk0OTI4IDM3LjQyMzE3M0M4MjEuOTk3MzY0LTEyLjQ3NDM5MSA3NDAuNzAxMzM0LTEyLjQ3NDM5MSA2OTEuMDAzNzYgMzcuNDIzMTczTDQ4OS41MTM1OTkgMjM5LjAxMzMyOWMtNDYuODk3NzEgNDYuODk3NzEtNDkuNTk3NTc4IDEyMS42OTQwNTgtOC4xOTk2IDE3MS45OTE2MDJsNjEuMTk3MDEyLTYxLjE5NzAxMWMtNC4xOTk3OTUtNy44OTk2MTQtNS4wOTk3NTEtMTUuNTk5MjM4LTUuMDk5NzUxLTIwLjE5OTAxNCAwLTYuNTk5Njc4IDEuNTk5OTIyLTE5LjM5OTA1MyAxMi4zOTkzOTQtMzAuMTk4NTI2TDc1MS4zMDA4MTYgOTcuOTIwMjE5YzEwLjc5OTQ3My0xMC43OTk0NzMgMjMuMzk4ODU3LTEyLjM5OTM5NSAzMC4xOTg1MjUtMTIuMzk5Mzk1IDYuNTk5Njc4IDAgMTkuMzk5MDUzIDEuNTk5OTIyIDMwLjE5ODUyNiAxMi4zOTkzOTVsMTE0LjY5NDQgMTE0LjY5NDM5OWMxMC43OTk0NzMgMTAuNzk5NDczIDEyLjM5OTM5NSAyMy4zOTg4NTcgMTIuMzk5Mzk0IDMwLjE5ODUyNiAwIDYuNTk5Njc4LTEuNTk5OTIyIDE5LjM5OTA1My0xMi4zOTkzOTQgMzAuMTk4NTI1TDcyNC43MDIxMTUgNDc0LjQwMTgzNmMtMTAuNzk5NDczIDEwLjc5OTQ3My0yMy4zOTg4NTcgMTIuMzk5Mzk1LTMwLjE5ODUyNiAxMi4zOTkzOTQtNS41OTk3MjcgMC0xNS40OTkyNDMtMS4xOTk5NDEtMjQuODk4Nzg0LTcuODk5NjE0bC02MC40OTcwNDYgNjAuNDk3MDQ2YzUwLjA5NzU1NCA0NC44OTc4MDggMTI3LjY5Mzc2NSA0My4yOTc4ODYgMTc1Ljk5MTQwNy00Ljc5OTc2NUw5ODYuNTg5MzI3IDMzMy4wMDg3NGM0OS42OTc1NzMtNDkuNjk3NTczIDQ5LjY5NzU3My0xMzEuMTkzNTk0IDAtMTgwLjg5MTE2OHoiLz48L3N2Zz4=;" vertex="1" parent="1">
          <mxGeometry x="200" y="120" width="40" height="40" as="geometry" />
        </mxCell>
        <mxCell id="_FwA0yZikW31yTaf9PdV-3" value="&lt;font style=&quot;font-size: 15px;&quot; face=&quot;Times New Roman&quot;&gt;各高校的官网&lt;/font&gt;" style="rounded=1;whiteSpace=wrap;html=1;" vertex="1" parent="1">
          <mxGeometry x="-40" y="110" width="110" height="60" as="geometry" />
        </mxCell>
        <mxCell id="_FwA0yZikW31yTaf9PdV-4" value="" style="endArrow=classic;html=1;rounded=0;exitX=1;exitY=0.5;exitDx=0;exitDy=0;entryX=0;entryY=0.5;entryDx=0;entryDy=0;fontSize=45;fontFamily=Times New Roman;" edge="1" parent="1" source="_FwA0yZikW31yTaf9PdV-3" target="_FwA0yZikW31yTaf9PdV-1">
          <mxGeometry width="50" height="50" relative="1" as="geometry">
            <mxPoint x="370" y="270" as="sourcePoint" />
            <mxPoint x="420" y="220" as="targetPoint" />
          </mxGeometry>
        </mxCell>
        <mxCell id="_FwA0yZikW31yTaf9PdV-5" value="&lt;font style=&quot;font-size: 15px;&quot; face=&quot;Times New Roman&quot;&gt;爬取&lt;/font&gt;" style="edgeLabel;html=1;align=center;verticalAlign=middle;resizable=0;points=[];" vertex="1" connectable="0" parent="_FwA0yZikW31yTaf9PdV-4">
          <mxGeometry x="-0.0844" y="4" relative="1" as="geometry">
            <mxPoint y="-16" as="offset" />
          </mxGeometry>
        </mxCell>
        <mxCell id="_FwA0yZikW31yTaf9PdV-7" value="&lt;font style=&quot;font-size: 15px;&quot; face=&quot;Times New Roman&quot;&gt;教师的个人信息网址&lt;/font&gt;" style="text;html=1;align=center;verticalAlign=middle;resizable=0;points=[];autosize=1;strokeColor=none;fillColor=none;" vertex="1" parent="1">
          <mxGeometry x="140" y="160" width="160" height="30" as="geometry" />
        </mxCell>
        <mxCell id="_FwA0yZikW31yTaf9PdV-8" value="" style="endArrow=classic;html=1;rounded=0;exitX=1;exitY=0.5;exitDx=0;exitDy=0;fontSize=45;fontFamily=Times New Roman;entryX=0;entryY=0.5;entryDx=0;entryDy=0;" edge="1" parent="1" source="_FwA0yZikW31yTaf9PdV-1" target="_FwA0yZikW31yTaf9PdV-11">
          <mxGeometry width="50" height="50" relative="1" as="geometry">
            <mxPoint x="210" y="139.5" as="sourcePoint" />
            <mxPoint x="320" y="140" as="targetPoint" />
          </mxGeometry>
        </mxCell>
        <mxCell id="_FwA0yZikW31yTaf9PdV-9" value="&lt;font style=&quot;font-size: 15px;&quot; face=&quot;Times New Roman&quot;&gt;分析并抽取信息&lt;/font&gt;" style="edgeLabel;html=1;align=center;verticalAlign=middle;resizable=0;points=[];" vertex="1" connectable="0" parent="_FwA0yZikW31yTaf9PdV-8">
          <mxGeometry x="-0.0844" y="4" relative="1" as="geometry">
            <mxPoint y="-16" as="offset" />
          </mxGeometry>
        </mxCell>
        <mxCell id="_FwA0yZikW31yTaf9PdV-11" value="&lt;font face=&quot;Times New Roman&quot;&gt;&lt;span style=&quot;font-size: 15px;&quot;&gt;半结构化信息&lt;/span&gt;&lt;/font&gt;" style="rounded=1;whiteSpace=wrap;html=1;" vertex="1" parent="1">
          <mxGeometry x="380" y="110" width="110" height="60" as="geometry" />
        </mxCell>
        <mxCell id="_FwA0yZikW31yTaf9PdV-12" value="" style="endArrow=classic;html=1;rounded=0;exitX=1;exitY=0.5;exitDx=0;exitDy=0;fontSize=45;fontFamily=Times New Roman;entryX=0;entryY=0.5;entryDx=0;entryDy=0;" edge="1" parent="1" source="_FwA0yZikW31yTaf9PdV-11" target="_FwA0yZikW31yTaf9PdV-14">
          <mxGeometry width="50" height="50" relative="1" as="geometry">
            <mxPoint x="440" y="139.5" as="sourcePoint" />
            <mxPoint x="490" y="140" as="targetPoint" />
          </mxGeometry>
        </mxCell>
        <mxCell id="_FwA0yZikW31yTaf9PdV-13" value="&lt;font style=&quot;font-size: 15px;&quot; face=&quot;Times New Roman&quot;&gt;存储&lt;/font&gt;" style="edgeLabel;html=1;align=center;verticalAlign=middle;resizable=0;points=[];" vertex="1" connectable="0" parent="_FwA0yZikW31yTaf9PdV-12">
          <mxGeometry x="-0.0844" y="4" relative="1" as="geometry">
            <mxPoint y="-16" as="offset" />
          </mxGeometry>
        </mxCell>
        <mxCell id="_FwA0yZikW31yTaf9PdV-14" value="&lt;font style=&quot;font-size: 15px;&quot;&gt;MongoDB数据库&lt;/font&gt;" style="shape=datastore;whiteSpace=wrap;html=1;" vertex="1" parent="1">
          <mxGeometry x="640" y="105" width="70" height="70" as="geometry" />
        </mxCell>
        <mxCell id="_FwA0yZikW31yTaf9PdV-15" value="&lt;font style=&quot;font-size: 15px;&quot;&gt;MongoDB数据库&lt;/font&gt;" style="shape=datastore;whiteSpace=wrap;html=1;" vertex="1" parent="1">
          <mxGeometry x="-30" y="200" width="70" height="70" as="geometry" />
        </mxCell>
        <mxCell id="_FwA0yZikW31yTaf9PdV-16" value="" style="endArrow=classic;html=1;rounded=0;exitX=1;exitY=0.5;exitDx=0;exitDy=0;fontSize=45;fontFamily=Times New Roman;" edge="1" parent="1">
          <mxGeometry width="50" height="50" relative="1" as="geometry">
            <mxPoint x="40" y="240" as="sourcePoint" />
            <mxPoint x="160" y="240" as="targetPoint" />
          </mxGeometry>
        </mxCell>
        <mxCell id="_FwA0yZikW31yTaf9PdV-17" value="&lt;font face=&quot;Times New Roman&quot;&gt;&lt;span style=&quot;font-size: 15px;&quot;&gt;加载待清洗数据&lt;/span&gt;&lt;/font&gt;" style="edgeLabel;html=1;align=center;verticalAlign=middle;resizable=0;points=[];" vertex="1" connectable="0" parent="_FwA0yZikW31yTaf9PdV-16">
          <mxGeometry x="-0.0844" y="4" relative="1" as="geometry">
            <mxPoint y="-16" as="offset" />
          </mxGeometry>
        </mxCell>
        <mxCell id="_FwA0yZikW31yTaf9PdV-18" value="&lt;font face=&quot;Times New Roman&quot;&gt;&lt;span style=&quot;font-size: 15px;&quot;&gt;半结构化信息&lt;/span&gt;&lt;/font&gt;" style="rounded=1;whiteSpace=wrap;html=1;" vertex="1" parent="1">
          <mxGeometry x="160" y="210" width="110" height="60" as="geometry" />
        </mxCell>
        <mxCell id="_FwA0yZikW31yTaf9PdV-19" value="" style="endArrow=classic;html=1;rounded=0;exitX=1;exitY=0.5;exitDx=0;exitDy=0;fontSize=45;fontFamily=Times New Roman;" edge="1" parent="1">
          <mxGeometry width="50" height="50" relative="1" as="geometry">
            <mxPoint x="270" y="239.5" as="sourcePoint" />
            <mxPoint x="420" y="240" as="targetPoint" />
          </mxGeometry>
        </mxCell>
        <mxCell id="_FwA0yZikW31yTaf9PdV-20" value="&lt;font face=&quot;Times New Roman&quot;&gt;&lt;span style=&quot;font-size: 15px;&quot;&gt;实体识别与关系提取&lt;/span&gt;&lt;/font&gt;" style="edgeLabel;html=1;align=center;verticalAlign=middle;resizable=0;points=[];" vertex="1" connectable="0" parent="_FwA0yZikW31yTaf9PdV-19">
          <mxGeometry x="-0.0844" y="4" relative="1" as="geometry">
            <mxPoint y="-16" as="offset" />
          </mxGeometry>
        </mxCell>
        <mxCell id="_FwA0yZikW31yTaf9PdV-21" value="&lt;font face=&quot;Times New Roman&quot;&gt;&lt;span style=&quot;font-size: 15px;&quot;&gt;结构化信息&lt;/span&gt;&lt;/font&gt;" style="rounded=1;whiteSpace=wrap;html=1;" vertex="1" parent="1">
          <mxGeometry x="420" y="210" width="110" height="60" as="geometry" />
        </mxCell>
        <mxCell id="_FwA0yZikW31yTaf9PdV-22" value="" style="endArrow=classic;html=1;rounded=0;exitX=1;exitY=0.5;exitDx=0;exitDy=0;fontSize=45;fontFamily=Times New Roman;" edge="1" parent="1">
          <mxGeometry width="50" height="50" relative="1" as="geometry">
            <mxPoint x="530" y="239.5" as="sourcePoint" />
            <mxPoint x="640" y="240" as="targetPoint" />
          </mxGeometry>
        </mxCell>
        <mxCell id="_FwA0yZikW31yTaf9PdV-23" value="&lt;font style=&quot;font-size: 15px;&quot; face=&quot;Times New Roman&quot;&gt;构建知识图谱&lt;/font&gt;" style="edgeLabel;html=1;align=center;verticalAlign=middle;resizable=0;points=[];" vertex="1" connectable="0" parent="_FwA0yZikW31yTaf9PdV-22">
          <mxGeometry x="-0.0844" y="4" relative="1" as="geometry">
            <mxPoint y="-16" as="offset" />
          </mxGeometry>
        </mxCell>
        <mxCell id="_FwA0yZikW31yTaf9PdV-24" value="&lt;font style=&quot;font-size: 15px;&quot;&gt;Neo4j&lt;/font&gt;&lt;div&gt;&lt;font style=&quot;font-size: 15px;&quot;&gt;图数据库&lt;/font&gt;&lt;/div&gt;" style="shape=datastore;whiteSpace=wrap;html=1;" vertex="1" parent="1">
          <mxGeometry x="640" y="205" width="70" height="70" as="geometry" />
        </mxCell>
        <mxCell id="_FwA0yZikW31yTaf9PdV-25" value="" style="shape=actor;whiteSpace=wrap;html=1;" vertex="1" parent="1">
          <mxGeometry x="-30" y="350" width="40" height="60" as="geometry" />
        </mxCell>
        <mxCell id="_FwA0yZikW31yTaf9PdV-26" value="" style="endArrow=classic;html=1;rounded=0;fontSize=45;fontFamily=Times New Roman;entryX=0;entryY=0.5;entryDx=0;entryDy=0;" edge="1" parent="1">
          <mxGeometry width="50" height="50" relative="1" as="geometry">
            <mxPoint x="10" y="380" as="sourcePoint" />
            <mxPoint x="110" y="380" as="targetPoint" />
          </mxGeometry>
        </mxCell>
        <mxCell id="_FwA0yZikW31yTaf9PdV-27" value="&lt;font face=&quot;Times New Roman&quot;&gt;&lt;span style=&quot;font-size: 15px;&quot;&gt;提问&lt;b&gt;+&lt;/b&gt;指定模型&lt;/span&gt;&lt;/font&gt;" style="edgeLabel;html=1;align=center;verticalAlign=middle;resizable=0;points=[];" vertex="1" connectable="0" parent="_FwA0yZikW31yTaf9PdV-26">
          <mxGeometry x="-0.0844" y="4" relative="1" as="geometry">
            <mxPoint y="-16" as="offset" />
          </mxGeometry>
        </mxCell>
        <mxCell id="_FwA0yZikW31yTaf9PdV-35" value="" style="shape=image;imageAspect=0;aspect=fixed;verticalLabelPosition=bottom;verticalAlign=top;image=data:image/svg+xml,PHN2ZyB4bWxuczp4bGluaz0iaHR0cDovL3d3dy53My5vcmcvMTk5OS94bGluayIgeG1sbnM9Imh0dHA6Ly93d3cudzMub3JnLzIwMDAvc3ZnIiBoZWlnaHQ9IjIwMCIgd2lkdGg9IjIwMCIgdmVyc2lvbj0iMS4xIiB2aWV3Qm94PSIwIDAgMTAyNCAxMDI0IiBjbGFzcz0iaWNvbiI+PHBhdGggZmlsbD0iIzA2NkFGMyIgZD0iTTk2LjIwMSA2MzYuMzEyYy0wLjE0Ny0xMTMuNDEzLTAuMjk0LTIyNi44MjYtMC4yOTQtMzQwLjIzOSAwLTE0Ljg3NiA3LjY1OS0yNi41MTIgMjAuNDczLTM0LjAyNCA0NS41MTItMjYuNjU5IDkxLjAyNS01My4zMTggMTM2LjgzMi03OS41MzYgNzEuMTQtNDAuOTQ3IDE0Mi40My04MS41OTkgMjEzLjcxNy0xMjIuMzk4IDcuMzY1LTQuMTI0IDE0LjU4Mi04LjM5NSAyMS41MDUtMTMuMjU2IDE5LjQ0Mi0xMy40MDMgMzkuMDMxLTE2LjA1NCA2MC4wOTQtMy41MzUgMjcuMzk2IDE2LjM1IDU0LjkzOSAzMi4yNTcgODIuNDgyIDQ4LjE2NCA4OC4wOCA1MC45NjIgMTc2LjMwNiAxMDEuNzc3IDI2NC4zODUgMTUyLjU5MiA5Ljg2OCA1Ljc0NCAxOS44ODQgMTEuMTk0IDI5LjYwNSAxNy4wODYgMTQuMTQgOC41NDIgMjEuNTA1IDIxLjA2MiAyMS41MDUgMzcuNzA2IDAgMTQ3LjczMSAwLjI5NCAyOTUuNDYzLTAuMTQ4IDQ0My4xOTQgMCAxNS40NjYtNy4yMTcgMjguNTc1LTIxLjc5OSAzNi45Ny0zNC43NiAyMC4xNzktNzAuNTUxIDM4Ljg4NS0xMDQuNTc1IDU5Ljk0Ny00OC45IDMwLjE5NC0xMDAuMDEgNTYuMTE3LTE0OC43NjMgODYuNjA2LTI5LjAxNiAxOC4xMTctNTkuNTA1IDM0LjAyNC04OS4xMSA1MC45NjMtMTMuMTA5IDcuNTExLTI2LjA3IDE1LjE3LTM5LjAzMiAyMi45NzctMTMuODQ1IDguMzk1LTI3LjgzOCA4LjgzNy00MS45NzcgMC43MzYtNTYuNDEyLTMyLjU1LTExMi44MjQtNjUuMTAyLTE2OS4zODQtOTcuNjUzLTYxLjg2MS0zNS42NDQtMTIzLjcyMy03MS4xNC0xODUuNDM3LTEwNi43ODUtMTEuMTk0LTYuNDgtMjIuMjQxLTEyLjgxNC0zMi45OTMtMTkuODg0LTExLjQ4OS03LjY1OS0xNy4wODYtMTkuMTQ4LTE3LjA4Ni0zMi42OTgtMC4xNDctMzQuNzYgMC4xNDgtNjkuNTIgMC4yOTUtMTA0LjI4MSAxLjYyLTAuNTkgMS42Mi0xLjYyLTAuMjk1LTIuNjUyeiBtMzU2LjU4OS0yMjUuNWMyLjIwOS0xLjc2NyA0LjQxOC0zLjY4MiA2Ljc3NS01LjE1NSA2OC45MzEtMzkuNjIxIDEzNy44NjMtNzkuMjQyIDIwNi45NDItMTE4Ljg2MyAyLjc5OC0xLjYyIDYuNDgtMS42MiA2LjYyOC02LjE4NiAwLjE0Ny00Ljg2LTQuMTI0LTQuNzEzLTYuNzc1LTYuMTg2LTQwLjY1Mi0yMy41NjctODEuNTk5LTQ2LjgzOC0xMjIuMTA0LTcwLjg0Ny0xNi43OS0xMC4wMTUtMzIuODQ1LTguNTQyLTQ4LjQ1OCAwLjU5LTQ1Ljk1NCAyNi41MTItOTEuNDY3IDUzLjYxMy0xMzcuMjc0IDgwLjQyLTMxLjk2MiAxOC43MDYtNjQuMjE4IDM3LjExNy05Ni4zMjcgNTUuNjc1LTE4LjQxMiAxMC42MDUtMjcuNTQzIDI1LjMzNC0yNy4yNDkgNDcuNzIyIDAuODg0IDg5LjU1MiAwLjU5IDE3OS4xMDQgMC4xNDcgMjY4LjY1Ni0wLjE0NyAyMC4xOCA5LjI4IDMzLjU4MyAyNS4zMzQgNDMuMTU2IDMxLjM3MyAxOC43MDYgNjMuMTg3IDM3LjExNyA5NS4xNSA1NC45NCAxMC44OTkgNi4wMzggMjEuMDYyIDEzLjk5MiAzNS43OSAxOC40MVY1MDUuNTJjNi40ODEgMTkuNTkgMTguNTYgMzQuMDI0IDM2LjY3NiA0NC42MjkgMjcuODM4IDE2LjIwMiA2My4xODcgMTIuNTIgODYuMzEyLTEwLjQ1OCAyNi45NTQtMjYuNjU5IDI4LjcyMS02Mi44OTIgMTIuODE0LTkwLjE0LTE2LjM1LTI4LjQyOC00My41OTgtMzcuNTYtNzQuMzgxLTM4LjczOHogbTgyLjQ4MiA0MjkuNjQ0YzE0LjI4Ny0zLjgzIDI1LjkyMy0xMy45OTMgMzguODg0LTIxLjM1NyA0MC45NDctMjMuMjcyIDgxLjMwNC00Ny43MjIgMTIyLjU0NS03MC41NTIgMjYuOTU0LTE1LjAyMyA1Mi44NzctMzEuNjY3IDgwLjcxNS00NS4yMTggMTYuNzkxLTguMSAyOS42MDUtMjIuNTM1IDI5LjYwNS00My40NSAwLjE0OC05Mi45NCAwLjI5NS0xODUuNzMyIDAuMTQ4LTI3OC42NzIgMC0xMS4xOTQtNS4xNTYtMTMuOTkzLTEzLjg0Ni03LjA3LTI2LjUxMiAyMC43NjgtNTcuMjk1IDM0LjQ2Ni04Ni4xNjQgNTEuMjU3LTU0LjQ5NyAzMS44MTQtMTA5LjE0MiA2My4zMzQtMTYzLjc4NiA5NS4wMDItOC41NDMgNC44Ni0xMS43ODMgMTAuNDU3LTExLjYzNiAyMC40NzMgMC4yOTQgOTYuMTggMC4xNDcgMTkyLjUwNyAwLjE0NyAyODguNjg4LTAuMjk0IDMuNTM1LTEuNDczIDcuNjU5IDMuMzg4IDEwLjg5OXoiLz48cGF0aCBmaWxsPSIjNDM3MkUwIiBkPSJNOTYuMjAxIDYzNi4zMTJjMS45MTUgMS4wMzIgMS45MTUgMi4wNjMgMCAzLjA5NHYtMy4wOTR6Ii8+PHBhdGggZmlsbD0iIzAwMkE5QSIgZD0iTTM5MS4zNyA1MDUuMzcyYy01LjQ1LTQ0LjMzNCAxMy44NDUtNzQuMDg3IDYxLjQyLTk0LjU2IDMwLjkzIDEuMTc4IDU4LjAzMiAxMC4zMSA3NC4zOCAzOC41OSAxNS43NiAyNy4zOTYgMTQuMTQgNjMuNDgyLTEyLjgxMyA5MC4xNDEtMjMuMjcyIDIyLjk3Ny01OC40NzQgMjYuNjYtODYuMzEyIDEwLjQ1OC0xOC4xMTctMTAuNjA1LTMwLjM0Mi0yNS4wNC0zNi42NzUtNDQuNjI5eiIvPjwvc3ZnPg==;" vertex="1" parent="1">
          <mxGeometry x="477.5" y="320" width="40" height="40" as="geometry" />
        </mxCell>
        <mxCell id="_FwA0yZikW31yTaf9PdV-36" value="" style="shape=image;imageAspect=0;aspect=fixed;verticalLabelPosition=bottom;verticalAlign=top;image=data:image/svg+xml,PHN2ZyB4bWxuczp4bGluaz0iaHR0cDovL3d3dy53My5vcmcvMTk5OS94bGluayIgeG1sbnM9Imh0dHA6Ly93d3cudzMub3JnLzIwMDAvc3ZnIiBoZWlnaHQ9IjIwMCIgd2lkdGg9IjIxMi44OTA2MjUiIHZlcnNpb249IjEuMSIgdmlld0JveD0iMCAwIDEwOTAgMTAyNCIgY2xhc3M9Imljb24iPjxwYXRoIGZpbGw9IiMzRUM3RjgiIGQ9Ik04MzAuNTU5OTc3ODcgODY0LjI1MjQ5Mzk2Yy0yMC43MTI2MTIzNSAyOS4xMzU3NDEzNy00Ny41MDA5MjQzIDUxLjkxOTYxNDk1LTc2LjA4NDMyOTM0IDcyLjQ5NDE0MzIxLTg0LjIzMTI5MDIxIDYwLjc1Njk5NjIxLTE3OC44MTg4ODY1OCA4NS40NzQwNDY5NS0yODEuODI5NjEyIDc3LjMyNzA4NjA4LTE2Ny40OTU5OTE4NC0xMy4xMTc5ODc4Mi0zMjAuMzU1MDcwOTUtMTM5LjA1MDY3MDg4LTM2My43MTM0NzI3OC0zMDIuMTI3OTcyMDctNDMuNDk2NDg1OTItMTYzLjIxNTM4NTI4LTUuNTIzMzYzMy0zMDYuMjcwNDk0NTUgMTE0LjA1NzQ1MTk4LTQyNi40MDM2NDYxNSA1OC45NjE5MDMxNC01OS4yMzgwNzEzMSAxMTkuMDI4NDc4OTUtMTE3LjIzMzM4NTg3IDE3OC42ODA4MDI1MS0xNzUuNzgxMDM2NzggMy4wMzc4NDk4LTMuMDM3ODQ5OCA1LjUyMzM2MzMtNy4wNDIyODgxOSAxMS4zMjI4OTQ3NC04LjY5OTI5NzE5IDIuNjIzNTk3NTcgNy41OTQ2MjQ1My0xLjEwNDY3MjY1IDE0Ljc3NDk5NjgtMS45MzMxNzcxNCAyMS42NzkyMDA5My05LjY2NTg4NTc2IDg0Ljc4MzYyNjUzIDE1LjQ2NTQxNzIyIDE2MC41OTE3ODc3MSA1OS4zNzYxNTUzOSAyMzEuNDI4OTIxOTMgMzEuNzU5MzM4OTMgNTEuMzY3Mjc4NjEgNzEuMjUxMzg2NDcgOTYuNTIwNzczNTMgMTE4LjA2MTg5MDM3IDEzNC4yMTc3MjggNTcuODU3MjMwNDkgNDYuNjcyNDE5ODIgNjQuMjA5MDk4MjcgMTIzLjAzMjkxNzMzIDMwLjUxNjU4MjE5IDE3NS41MDQ4Njg2MS0zOC42NjM1NDMwNSA2MC4yMDQ2NTk4OC0xMjEuMjM3ODI0MjcgNzcuNjAzMjU0MjUtMTgwLjA2MTY0MzMzIDM3LjAwNjUzNDA2LTMuMDM3ODQ5OC0yLjA3MTI2MTI0LTcuNDU2NTQwNDUtMy4zMTQwMTc5Ny04LjI4NTA0NDkzLTkuMjUxNjMzNTEgOC4wMDg4NzY3NyAwLjI3NjE2ODE2IDE1Ljc0MTU4NTM5IDIuNjIzNTk3NTcgMjMuNDc0MjkzOTggMC44Mjg1MDQ0OSAxOC41MDMyNjcwMi00LjQxODY5MDYzIDMxLjIwNzAwMjYtMTUuNDY1NDE3MjIgMzYuMDM5OTQ1NDktMzMuOTY4Njg0MjUgNC44MzI5NDI4OC0xOC42NDEzNTExMS0wLjgyODUwNDUtMzQuNjU5MTA0NjUtMTUuNjAzNTAxMzEtNDYuNjcyNDE5ODItNDIuNjY3OTgxNDMtMzQuNzk3MTg4NzUtODIuNTc0MjgxMjItNzIuNDk0MTQzMi0xMTUuNDM4MjkyOC0xMTcuMDk1MzAxNzgtMTIuNDI3NTY3NDEtMTYuODQ2MjU4MDQtMjMuNjEyMzc4MDgtMzQuNjU5MTA0NjUtMzQuNjU5MTA0NjYtNTQuMTI4OTYwMjctMTYuNTcwMDg5ODcgMTguNjQxMzUxMTEtMjcuODkyOTg0NjMgMzkuMDc3Nzk1My0zNi40NTQxOTc3MiA2MC44OTUwODAzLTQyLjk0NDE0OTYgMTA5LjYzODc2MTM0LTYuNzY2MTIwMDMgMjI1Ljc2NzQ3NDU3IDkwLjk5NzQxMDI0IDI5NC4yNTcxNzkzOSA3LjE4MDM3MjI5IDQuOTcxMDI2OTcgMTQuNzc0OTk2OCA5LjUyNzgwMTY5IDIxLjI2NDk0ODY3IDE1LjQ2NTQxNzIzIDEuNTE4OTI0OTEgMS41MTg5MjQ5MSAyLjg5OTc2NTczIDMuMzE0MDE3OTcgNC42OTQ4NTg3OSA0LjU1Njc3NDcgNTYuMjAwMjIxNDkgMzcuNjk2OTU0NDcgMTE2LjgxOTEzMzYzIDY0LjYyMzM1MDUyIDE4NC4wNjYwODE3MSA3NS4xMTc3NDA3OCA0Ny43NzcwOTI0NyA3LjQ1NjU0MDQ1IDk1LjY5MjI2OTAzIDguMTQ2OTYwODYgMTQzLjg4MzYxMzc4IDMuNDUyMTAyMDUgMzQuOTM1MjcyODItMy4zMTQwMTc5NyA2Ny4yNDY5NDgwOS0xMy4yNTYwNzE5IDk3LjYyNTQ0NjE3LTMwLjEwMjMyOTk0eiIvPjxwYXRoIGZpbGw9IiNFOTAzMDIiIGQ9Ik01MTMuOTMzMTc3MTUgNS43ODM3NTQyN2M2MS40NDc0MTY2MyA2MC4zNDI3NDM5NyAxMjIuMDY2MzI4NzUgMTE5Ljg1Njk4MzQzIDE4Mi41NDcxNTY4MSAxNzkuMjMzMTM4ODMgMzYuMzE2MTEzNjMgMzUuNjI1NjkzMjQgNzIuOTA4Mzk1NDcgNzEuMjUxMzg2NDcgMTA4Ljk0ODM0MDk0IDEwNy4xNTMyNDc4OCA2Ni40MTg0NDM1OCA2Ni4xNDIyNzU0MSAxMDUuNzcyNDA3MDUgMTQ2LjA5Mjk1OTA4IDEyMC4yNzEyMzU2OCAyMzguNDcxMjEwMTMgMC41NTIzMzYzMyAzLjU5MDE4NjEzIDAuODI4NTA0NSA3LjA0MjI4ODE5IDAuOTY2NTg4NTkgMTAuNjMyNDc0MzQgMCAxLjEwNDY3MjY1LTAuNTUyMzM2MzMgMi4yMDkzNDUzMi0wLjgyODUwNDUgMy4zMTQwMTc5Ni0zLjMxNDAxNzk3IDAuMjc2MTY4MTYtNC4wMDQ0MzgzOC0yLjIwOTM0NTMyLTQuODMyOTQyODgtNC4xNDI1MjI0Ni0yMi45MjE5NTc2Ni00Ny4zNjI4NDAyMy02MC44OTUwODAzLTc3LjA1MDkxNzkyLTEwOS42Mzg3NjEzNi05NC4zMTE0MjgyLTI1LjY4MzYzOTMxLTkuMTEzNTQ5NDMtNTIuNDcxOTUxMjYtMTQuMzYwNzQ0NTctNzguNzA3OTI2OS0yMS40MDMwMzI3Ni02NS43MjgwMjMxOC0xNy4zOTg1OTQzNy0xMjQuOTY2MDk0NDktNDUuOTgxOTk5NDEtMTY4LjE4NjQxMjI3LTEwMC42NjMyOTYtMzUuMDczMzU2OTEtNDQuNDYzMDc0NTEtNTMuODUyNzkyMS05NS4xMzk5MzI3LTUzLjU3NjYyMzkxLTE1Mi4zMDY3NDI4IDAuMjc2MTY4MTYtNTAuNTM4Nzc0MTMgMC0xMDAuOTM5NDY0MTYgMC4xMzgwODQwNi0xNTEuNDc4MjM4MjgtMC4xMzgwODQwOS00LjI4MDYwNjU1LTIuMjA5MzQ1MzItOS41Mjc4MDE2OSAyLjg5OTc2NTc0LTE0LjQ5ODgyODY0eiIvPjxwYXRoIGZpbGw9IiMxNzUzRDciIGQ9Ik04MzAuNTU5OTc3ODcgODY0LjI1MjQ5Mzk2Yy0zMC4zNzg0OTgxIDE2Ljg0NjI1ODA0LTYyLjY5MDE3MzM3IDI2LjY1MDIyNzg4LTk3LjM0OTI3ODAyIDMwLjEwMjMyOTk0LTQ4LjE5MTM0NDc0IDQuNjk0ODU4ODEtOTYuMTA2NTIxMjggNC4wMDQ0MzgzOC0xNDMuODgzNjEzNzctMy40NTIxMDIwNS02Ny4yNDY5NDgwOS0xMC40OTQzOTAyNS0xMjcuODY1ODYwMjEtMzcuNDIwNzg2MzEtMTg0LjA2NjA4MTctNzUuMTE3NzQwNzgtMS43OTUwOTMwNy0xLjI0Mjc1Njc1LTMuMTc1OTMzOS0zLjAzNzg0OTgtNC42OTQ4NTg4LTQuNTU2Nzc0NyA1LjM4NTI3OTItMS43OTUwOTMwNyA5LjM4OTcxNzYgMS43OTUwOTMwNyAxMy44MDg0MDgyMiAzLjcyODI3MDIyIDE1MS4wNjM5ODYwNCA2NS44NjYxMDcyNSAzMjEuNzM1OTExNzctMzYuMDM5OTQ1NDggMzM1LjY4MjQwNDEtMjAwLjM2MDAwMzQ0IDMuNzI4MjcwMjItNDMuMzU4NDAxODUtMy40NTIxMDIwNy04NC41MDc0NTgzNy0yMS40MDMwMzI3Ni0xMjMuODYxNDIxODMtMS4xMDQ2NzI2NS0yLjQ4NTUxMzQ4LTIuMjA5MzQ1MzItNC44MzI5NDI4OC0zLjE3NTkzMzg5LTcuMzE4NDU2MzUtMC4yNzYxNjgxNi0wLjY5MDQyMDQyIDAuMTM4MDg0MDktMS42NTcwMDg5OCAwLjEzODA4NDA3LTIuNjIzNTk3NTcgMy44NjYzNTQzMS0zLjMxNDAxNzk3IDcuNzMyNzA4Ni0wLjQxNDI1MjI1IDExLjMyMjg5NDc2IDAuNDE0MjUyMjMgNDYuNjcyNDE5ODIgMTAuMjE4MjIyMDggODguNjQ5OTgwODMgMzAuMTAyMzI5OTMgMTI0LjQxMzc1ODE1IDYxLjk5OTc1Mjk3IDQ4LjMyOTQyODggNDMuMjIwMzE3NzYgNjcuOTM3MzY4NSA5Ny4zNDkyNzgwMyA1My4xNjIzNzE2OCAxNjAuNTkxNzg3NzEtMTMuODA4NDA4MjMgNjAuMDY2NTc1ODEtNDEuOTc3NTYxMDMgMTE0LjE5NTUzNjA2LTgzLjk1NTEyMjA0IDE2MC40NTM3MDM2NXoiLz48L3N2Zz4=;" vertex="1" parent="1">
          <mxGeometry x="477.5" y="440" width="40" height="37.56" as="geometry" />
        </mxCell>
        <mxCell id="_FwA0yZikW31yTaf9PdV-37" value="" style="shape=image;imageAspect=0;aspect=fixed;verticalLabelPosition=bottom;verticalAlign=top;image=data:image/svg+xml,PHN2ZyB4bWxuczp4bGluaz0iaHR0cDovL3d3dy53My5vcmcvMTk5OS94bGluayIgeG1sbnM9Imh0dHA6Ly93d3cudzMub3JnLzIwMDAvc3ZnIiBoZWlnaHQ9IjIwMCIgd2lkdGg9IjIwOS45NjA5Mzc1IiBkYXRhLXNwbS1hbmNob3ItaWQ9ImEzMTN4LnNlYXJjaF9pbmRleC4wLmkwLjUyMjQzYTgxd3NvVkVLIiB2ZXJzaW9uPSIxLjEiIHZpZXdCb3g9IjAgMCAxMDc1IDEwMjQiIGNsYXNzPSJpY29uIj48cGF0aCBjbGFzcz0iIiBkYXRhLXNwbS1hbmNob3ItaWQ9ImEzMTN4LnNlYXJjaF9pbmRleC4wLmkxLjUyMjQzYTgxd3NvVkVLIiBmaWxsPSIjNkI3NDhGIiBkPSJNNDI4LjkwMjQgNTEuMmM2OC4wOTYgMCAxMjcuNDg4IDM2Ljg2NCAxNTkuMzg1NiA5MS43NTA0bDQuNjA4IDguMzQ1NiAyOS4zODg4LTE2Ljk0NzJhMTg0LjMyIDE4NC4zMiAwIDAgMSAyNTIuMjYyNCAyNTAuODhsLTUuMTcxMiA4LjYwMTYgMjkuMzg4OCAxNi45OTg0YTE4NC4zMiAxODQuMzIgMCAwIDEtOTEuMTg3MiAzNDMuOTYxNmwtMTAuMDM1Mi0wLjI1NnYzMy45NDU2YTE4NC4zMiAxODQuMzIgMCAwIDEtMzQzLjcwNTYgOTIuNTY5NmwtNC42MDgtOC4zNDU2LTI5LjMzNzYgMTYuOTQ3MmExODQuMzIgMTg0LjMyIDAgMCAxLTI1Mi4zMTM2LTI1MC45MzEybDUuMTcxMi04LjU1MDQtMjkuMzM3Ni0xNi45OTg0YTE4NC4zMiAxODQuMzIgMCAwIDEgOTEuMTM2LTM0My45NjE2bDEwLjAzNTIgMC4yNTZWMjM1LjUyYTE4NC4zMiAxODQuMzIgMCAwIDEgMTg0LjMyLTE4NC4zMnogbTIxNi42Nzg0IDQ5Ny4xMDA4bC0zLjEyMzIgMTg3LjAzMzZhNDYuMDggNDYuMDggMCAwIDEtMTguMDczNiAzNS44NGwtNC45NjY0IDMuMjc2OC05MC4xNjMyIDUyLjA3MDRhOTIuMjExMiA5Mi4yMTEyIDAgMCAwIDE3NS44NzItMzEuMTgwOGwwLjI1Ni02Ljg2MDh2LTIwNC4yODhsLTU5LjgwMTYtMzUuODkxMnogbS05My42OTYgODkuNjUxMmwtMTYzLjUzMjggOTAuODI4OC01LjQ3ODQgMi41NmE0Ni4wOCA0Ni4wOCAwIDAgMS0zNC41Ni0wLjMwNzJsLTUuMzc2LTIuNjYyNC05MC4xNjMyLTUyLjAxOTItNC4wOTYgNi4yNDY0YTkyLjE2IDkyLjE2IDAgMCAwIDExOC43ODQgMTMwLjYxMTJsNi4zNDg4LTMuMzI4IDE3Ni44OTYtMTAyLjE5NTIgMS4xNzc2LTY5LjczNDR6IG0xMjMuODUyOC0yNDkuNDk3NmwtNjAuOTI4IDMzLjg0MzIgMTYwLjM1ODQgOTYuMjU2IDQuOTY2NCAzLjQzMDRhNDYuMDggNDYuMDggMCAwIDEgMTcuMDQ5NiAzMC4xMDU2bDAuMzU4NCA1Ljk5MDR2MTA0LjA4OTZsNy40NzUyIDAuNDA5NmE5Mi4xNiA5Mi4xNiAwIDAgMCA1My43Ni0xNjguMTQwOGwtNi4xNDQtMy44NC0xNzYuODk2LTEwMi4xNDR6IG0tNDMxLjEwNC0yNi42MjRhOTIuMjExMiA5Mi4yMTEyIDAgMCAwLTYxLjI4NjQgMTY3LjczMTJsNi4xNDQgMy44NCAxNzYuODk2IDEwMi4xNDQgNjAuOTc5Mi0zMy44NDMyLTE2MC40MDk2LTk2LjI1NmE0Ni4wOCA0Ni4wOCAwIDAgMS0yMi4wMTYtMzMuNTM2TDI0NC42MzM2IDQ2NS45MlYzNjEuODMwNHogbTI3Ny4wOTQ0IDExMi4xMjhsLTMzLjI4IDE4LjQzMi0wLjY2NTYgMzguMDkyOCAzMi42NjU2IDE5LjU1ODQgMzMuMjgtMTguNDMyIDAuNjE0NC0zOC4wOTI4LTMyLjYxNDQtMTkuNTU4NHpNNDI4LjkwMjQgMTQzLjM2YTkyLjE2IDkyLjE2IDAgMCAwLTkxLjkwNCA4NS4yOTkybC0wLjI1NiA2Ljg2MDh2MjA0LjI4OGw1OS44MDE2IDM1Ljg5MTIgMy4xNzQ0LTE4Ny4wMzM2IDAuNTEyLTUuOTkwNGE0Ni4wOCA0Ni4wOCAwIDAgMSAxNy41MTA0LTI5Ljc5ODRsNC45NjY0LTMuMzI4IDkwLjE2MzItNTIuMDcwNC0zLjA3Mi02LjI0NjRhOTIuMTYgOTIuMTYgMCAwIDAtODAuODk2LTQ3Ljg3MnogbTM2NS4zMTIgMTA0LjQ5OTJhOTIuMTYgOTIuMTYgMCAwIDAtMTE5LjUwMDgtMzcuMDY4OGwtNi4zNDg4IDMuMzI4LTE3Ni45NDcyIDEwMi4xOTUyLTEuMTc3NiA2OS43MzQ0IDE2My41ODQtOTAuODI4OGE0Ni4wOCA0Ni4wOCAwIDAgMSAzOS45ODcyLTIuMjUyOGw1LjQyNzIgMi42NjI0IDkwLjExMiA1Mi4wMTkyYzIwLjQyODgtMjguNTE4NCAyMy41NTItNjcuNDgxNiA0Ljg2NC05OS43ODg4eiIvPjwvc3ZnPg==;" vertex="1" parent="1">
          <mxGeometry x="477.5" y="380" width="40" height="38.1" as="geometry" />
        </mxCell>
        <mxCell id="_FwA0yZikW31yTaf9PdV-38" value="&lt;font face=&quot;Times New Roman&quot;&gt;&lt;span style=&quot;font-size: 15px;&quot;&gt;GPT-3.5&amp;nbsp;&lt;/span&gt;&lt;/font&gt;" style="text;html=1;align=center;verticalAlign=middle;resizable=0;points=[];autosize=1;strokeColor=none;fillColor=none;" vertex="1" parent="1">
          <mxGeometry x="460" y="410" width="80" height="30" as="geometry" />
        </mxCell>
        <mxCell id="_FwA0yZikW31yTaf9PdV-39" value="&lt;font face=&quot;Times New Roman&quot;&gt;&lt;span style=&quot;font-size: 15px;&quot;&gt;ERNIE-3.5&amp;nbsp;&lt;/span&gt;&lt;/font&gt;" style="text;html=1;align=center;verticalAlign=middle;resizable=0;points=[];autosize=1;strokeColor=none;fillColor=none;" vertex="1" parent="1">
          <mxGeometry x="455" y="350.00000000000006" width="100" height="30" as="geometry" />
        </mxCell>
        <mxCell id="_FwA0yZikW31yTaf9PdV-40" value="&lt;font face=&quot;Times New Roman&quot;&gt;&lt;span style=&quot;font-size: 15px;&quot;&gt;Generalv3.5&amp;nbsp;&lt;/span&gt;&lt;/font&gt;" style="text;html=1;align=center;verticalAlign=middle;resizable=0;points=[];autosize=1;strokeColor=none;fillColor=none;" vertex="1" parent="1">
          <mxGeometry x="455" y="467.23" width="100" height="30" as="geometry" />
        </mxCell>
        <mxCell id="_FwA0yZikW31yTaf9PdV-44" value="&lt;font style=&quot;font-size: 15px;&quot; face=&quot;Times New Roman&quot;&gt;大模型API接口&lt;/font&gt;" style="rounded=0;whiteSpace=wrap;html=1;" vertex="1" parent="1">
          <mxGeometry x="435" y="290" width="125" height="30" as="geometry" />
        </mxCell>
        <mxCell id="_FwA0yZikW31yTaf9PdV-48" value="" style="endArrow=classic;html=1;rounded=0;exitX=1;exitY=0.5;exitDx=0;exitDy=0;fontSize=45;fontFamily=Times New Roman;entryX=0.013;entryY=0.427;entryDx=0;entryDy=0;entryPerimeter=0;" edge="1" parent="1" target="_FwA0yZikW31yTaf9PdV-43">
          <mxGeometry width="50" height="50" relative="1" as="geometry">
            <mxPoint x="220" y="380" as="sourcePoint" />
            <mxPoint x="410" y="380" as="targetPoint" />
          </mxGeometry>
        </mxCell>
        <mxCell id="_FwA0yZikW31yTaf9PdV-49" value="&lt;font face=&quot;Times New Roman&quot;&gt;&lt;span style=&quot;font-size: 15px;&quot;&gt;提问&lt;b&gt;+&lt;/b&gt;指定模型&lt;/span&gt;&lt;/font&gt;" style="edgeLabel;html=1;align=center;verticalAlign=middle;resizable=0;points=[];" vertex="1" connectable="0" parent="_FwA0yZikW31yTaf9PdV-48">
          <mxGeometry x="-0.0844" y="4" relative="1" as="geometry">
            <mxPoint x="-37" y="-16" as="offset" />
          </mxGeometry>
        </mxCell>
        <mxCell id="_FwA0yZikW31yTaf9PdV-50" value="" style="shape=image;imageAspect=0;aspect=fixed;verticalLabelPosition=bottom;verticalAlign=top;image=data:image/svg+xml,PHN2ZyB4bWxuczp4bGluaz0iaHR0cDovL3d3dy53My5vcmcvMTk5OS94bGluayIgeG1sbnM9Imh0dHA6Ly93d3cudzMub3JnLzIwMDAvc3ZnIiBoZWlnaHQ9IjIwMCIgd2lkdGg9IjIwMCIgdmVyc2lvbj0iMS4xIiB2aWV3Qm94PSIwIDAgMTAyNCAxMDI0IiBjbGFzcz0iaWNvbiI+PHBhdGggZmlsbD0iIzI3MjYzNiIgZD0iTTU4MC43MjIxNzQgNDM3Ljk5MDQwMyA1ODAuNzIyMTc0IDc4LjE3MTM4NCA0MzYuNzk0MTU4IDc4LjE3MTM4NCA0MzYuNzk0MTU4IDQzNy45OTA0MDMgNzYuOTc1MTM5IDQzNy45OTA0MDMgNzYuOTc1MTM5IDU4MS45MTg0MTkgNDM2Ljc5NDE1OCA1ODEuOTE4NDE5IDQzNi43OTQxNTggOTQxLjczNzQzOCA1ODAuNzIyMTc0IDk0MS43Mzc0MzggNTgwLjcyMjE3NCA1ODEuOTE4NDE5IDk0MC41NDIyMTYgNTgxLjkxODQxOSA5NDAuNTQyMjE2IDQzNy45OTA0MDNaIi8+PC9zdmc+;" vertex="1" parent="1">
          <mxGeometry x="610" y="585" width="20" height="20" as="geometry" />
        </mxCell>
        <mxCell id="_FwA0yZikW31yTaf9PdV-55" value="" style="endArrow=classic;html=1;rounded=0;exitX=0.5;exitY=0;exitDx=0;exitDy=0;" edge="1" parent="1">
          <mxGeometry width="50" height="50" relative="1" as="geometry">
            <mxPoint x="270" y="435.74" as="sourcePoint" />
            <mxPoint x="270" y="380" as="targetPoint" />
          </mxGeometry>
        </mxCell>
        <mxCell id="_FwA0yZikW31yTaf9PdV-56" value="&lt;font face=&quot;Times New Roman&quot;&gt;&lt;span style=&quot;font-size: 15px;&quot;&gt;提示词&lt;/span&gt;&lt;/font&gt;&lt;div&gt;&lt;font face=&quot;Times New Roman&quot;&gt;&lt;span style=&quot;font-size: 15px;&quot;&gt;（Prompt）&lt;/span&gt;&lt;/font&gt;&lt;/div&gt;" style="text;html=1;align=center;verticalAlign=middle;resizable=0;points=[];autosize=1;strokeColor=none;fillColor=none;" vertex="1" parent="1">
          <mxGeometry x="340" y="330" width="100" height="50" as="geometry" />
        </mxCell>
        <mxCell id="_FwA0yZikW31yTaf9PdV-59" value="&lt;font style=&quot;font-size: 15px;&quot; face=&quot;Times New Roman&quot;&gt;师资知识库&lt;/font&gt;&lt;div style=&quot;font-size: 15px;&quot;&gt;&lt;font face=&quot;QShR_mXcAmbiQ9spp6os&quot;&gt;用户界面&lt;/font&gt;&lt;/div&gt;" style="rounded=1;whiteSpace=wrap;html=1;" vertex="1" parent="1">
          <mxGeometry x="110" y="350" width="110" height="60" as="geometry" />
        </mxCell>
        <mxCell id="_FwA0yZikW31yTaf9PdV-60" value="&lt;font face=&quot;Times New Roman&quot;&gt;&lt;span style=&quot;font-size: 15px;&quot;&gt;Cypher命令&lt;/span&gt;&lt;/font&gt;" style="rounded=1;whiteSpace=wrap;html=1;" vertex="1" parent="1">
          <mxGeometry x="620" y="350" width="110" height="60" as="geometry" />
        </mxCell>
        <mxCell id="_FwA0yZikW31yTaf9PdV-61" value="" style="endArrow=classic;html=1;rounded=0;fontSize=45;fontFamily=Times New Roman;entryX=0;entryY=0.5;entryDx=0;entryDy=0;" edge="1" parent="1" target="_FwA0yZikW31yTaf9PdV-60">
          <mxGeometry width="50" height="50" relative="1" as="geometry">
            <mxPoint x="560" y="380" as="sourcePoint" />
            <mxPoint x="600" y="380" as="targetPoint" />
          </mxGeometry>
        </mxCell>
        <mxCell id="_FwA0yZikW31yTaf9PdV-62" value="&lt;font face=&quot;Times New Roman&quot;&gt;&lt;span style=&quot;font-size: 15px;&quot;&gt;生成&lt;/span&gt;&lt;/font&gt;" style="edgeLabel;html=1;align=center;verticalAlign=middle;resizable=0;points=[];" vertex="1" connectable="0" parent="_FwA0yZikW31yTaf9PdV-61">
          <mxGeometry x="-0.0844" y="4" relative="1" as="geometry">
            <mxPoint y="-16" as="offset" />
          </mxGeometry>
        </mxCell>
        <mxCell id="_FwA0yZikW31yTaf9PdV-63" value="&lt;span style=&quot;text-wrap: nowrap; font-family: &amp;quot;Times New Roman&amp;quot;; font-size: 15px;&quot;&gt;知识图谱&lt;/span&gt;&lt;div&gt;&lt;span style=&quot;font-family: &amp;quot;Times New Roman&amp;quot;; font-size: 15px; text-wrap: nowrap;&quot;&gt;结构信息&lt;/span&gt;&lt;/div&gt;" style="rounded=1;whiteSpace=wrap;html=1;" vertex="1" parent="1">
          <mxGeometry x="220" y="437.23" width="110" height="60" as="geometry" />
        </mxCell>
        <mxCell id="_FwA0yZikW31yTaf9PdV-64" value="" style="endArrow=classic;html=1;rounded=0;entryX=0.5;entryY=0;entryDx=0;entryDy=0;" edge="1" parent="1" target="_FwA0yZikW31yTaf9PdV-67">
          <mxGeometry width="50" height="50" relative="1" as="geometry">
            <mxPoint x="675" y="410" as="sourcePoint" />
            <mxPoint x="420" y="250" as="targetPoint" />
          </mxGeometry>
        </mxCell>
        <mxCell id="_FwA0yZikW31yTaf9PdV-65" value="&lt;font style=&quot;font-size: 15px;&quot; face=&quot;Times New Roman&quot;&gt;执行查询&lt;/font&gt;" style="edgeLabel;html=1;align=center;verticalAlign=middle;resizable=0;points=[];" vertex="1" connectable="0" parent="_FwA0yZikW31yTaf9PdV-64">
          <mxGeometry x="0.0667" y="-2" relative="1" as="geometry">
            <mxPoint x="-2" as="offset" />
          </mxGeometry>
        </mxCell>
        <mxCell id="_FwA0yZikW31yTaf9PdV-66" value="&lt;font face=&quot;Times New Roman&quot;&gt;&lt;span style=&quot;font-size: 15px;&quot;&gt;大模型API接口&lt;/span&gt;&lt;/font&gt;" style="rounded=1;whiteSpace=wrap;html=1;" vertex="1" parent="1">
          <mxGeometry x="435" y="560" width="110" height="60" as="geometry" />
        </mxCell>
        <mxCell id="_FwA0yZikW31yTaf9PdV-67" value="&lt;font style=&quot;font-size: 15px;&quot;&gt;Neo4j&lt;/font&gt;&lt;div&gt;&lt;font style=&quot;font-size: 15px;&quot;&gt;图数据库&lt;/font&gt;&lt;/div&gt;" style="shape=datastore;whiteSpace=wrap;html=1;" vertex="1" parent="1">
          <mxGeometry x="640" y="477.56" width="70" height="70" as="geometry" />
        </mxCell>
        <mxCell id="_FwA0yZikW31yTaf9PdV-68" value="" style="endArrow=classic;html=1;rounded=0;exitX=0.5;exitY=1;exitDx=0;exitDy=0;" edge="1" parent="1">
          <mxGeometry width="50" height="50" relative="1" as="geometry">
            <mxPoint x="680" y="532" as="sourcePoint" />
            <mxPoint x="545" y="584.44" as="targetPoint" />
            <Array as="points">
              <mxPoint x="680" y="584.44" />
            </Array>
          </mxGeometry>
        </mxCell>
        <mxCell id="_FwA0yZikW31yTaf9PdV-69" value="&lt;font style=&quot;font-size: 15px;&quot; face=&quot;Times New Roman&quot;&gt;查询结果&lt;/font&gt;" style="edgeLabel;html=1;align=center;verticalAlign=middle;resizable=0;points=[];" vertex="1" connectable="0" parent="_FwA0yZikW31yTaf9PdV-68">
          <mxGeometry x="0.0667" y="-2" relative="1" as="geometry">
            <mxPoint x="-12" y="-13" as="offset" />
          </mxGeometry>
        </mxCell>
        <mxCell id="_FwA0yZikW31yTaf9PdV-71" value="&lt;font face=&quot;Times New Roman&quot;&gt;&lt;span style=&quot;font-size: 15px;&quot;&gt;用户提问&lt;/span&gt;&lt;/font&gt;" style="text;html=1;align=center;verticalAlign=middle;resizable=0;points=[];autosize=1;strokeColor=none;fillColor=none;" vertex="1" parent="1">
          <mxGeometry x="580" y="605" width="80" height="30" as="geometry" />
        </mxCell>
        <mxCell id="_FwA0yZikW31yTaf9PdV-73" value="" style="endArrow=classic;html=1;rounded=0;fontSize=45;fontFamily=Times New Roman;exitX=0;exitY=0.5;exitDx=0;exitDy=0;" edge="1" parent="1" source="_FwA0yZikW31yTaf9PdV-66">
          <mxGeometry width="50" height="50" relative="1" as="geometry">
            <mxPoint x="570" y="390" as="sourcePoint" />
            <mxPoint x="320" y="590" as="targetPoint" />
            <Array as="points" />
          </mxGeometry>
        </mxCell>
        <mxCell id="_FwA0yZikW31yTaf9PdV-74" value="&lt;font face=&quot;Times New Roman&quot;&gt;&lt;span style=&quot;font-size: 15px;&quot;&gt;回答&lt;/span&gt;&lt;/font&gt;" style="edgeLabel;html=1;align=center;verticalAlign=middle;resizable=0;points=[];" vertex="1" connectable="0" parent="_FwA0yZikW31yTaf9PdV-73">
          <mxGeometry x="-0.0844" y="4" relative="1" as="geometry">
            <mxPoint y="-16" as="offset" />
          </mxGeometry>
        </mxCell>
        <mxCell id="_FwA0yZikW31yTaf9PdV-75" value="" style="shape=actor;whiteSpace=wrap;html=1;" vertex="1" parent="1">
          <mxGeometry x="50" y="540" width="40" height="60" as="geometry" />
        </mxCell>
        <mxCell id="_FwA0yZikW31yTaf9PdV-76" value="&lt;font style=&quot;font-size: 15px;&quot; face=&quot;Times New Roman&quot;&gt;师资知识库&lt;/font&gt;&lt;div style=&quot;font-size: 15px;&quot;&gt;&lt;font face=&quot;QShR_mXcAmbiQ9spp6os&quot;&gt;用户界面&lt;/font&gt;&lt;/div&gt;" style="rounded=1;whiteSpace=wrap;html=1;" vertex="1" parent="1">
          <mxGeometry x="210" y="560" width="110" height="60" as="geometry" />
        </mxCell>
        <mxCell id="_FwA0yZikW31yTaf9PdV-77" value="" style="endArrow=classic;html=1;rounded=0;fontSize=45;fontFamily=Times New Roman;exitX=0;exitY=0.5;exitDx=0;exitDy=0;" edge="1" parent="1">
          <mxGeometry width="50" height="50" relative="1" as="geometry">
            <mxPoint x="210" y="589.5" as="sourcePoint" />
            <mxPoint x="95" y="589.5" as="targetPoint" />
            <Array as="points" />
          </mxGeometry>
        </mxCell>
        <mxCell id="_FwA0yZikW31yTaf9PdV-78" value="&lt;font face=&quot;Times New Roman&quot;&gt;&lt;span style=&quot;font-size: 15px;&quot;&gt;回答&lt;/span&gt;&lt;/font&gt;" style="edgeLabel;html=1;align=center;verticalAlign=middle;resizable=0;points=[];" vertex="1" connectable="0" parent="_FwA0yZikW31yTaf9PdV-77">
          <mxGeometry x="-0.0844" y="4" relative="1" as="geometry">
            <mxPoint y="-16" as="offset" />
          </mxGeometry>
        </mxCell>
        <mxCell id="_FwA0yZikW31yTaf9PdV-79" value="&lt;font face=&quot;Times New Roman&quot;&gt;&lt;span style=&quot;font-size: 15px;&quot;&gt;用户&lt;/span&gt;&lt;/font&gt;" style="text;html=1;align=center;verticalAlign=middle;resizable=0;points=[];autosize=1;strokeColor=none;fillColor=none;" vertex="1" parent="1">
          <mxGeometry x="-35" y="410" width="50" height="30" as="geometry" />
        </mxCell>
        <mxCell id="_FwA0yZikW31yTaf9PdV-80" value="&lt;font face=&quot;Times New Roman&quot;&gt;&lt;span style=&quot;font-size: 15px;&quot;&gt;用户&lt;/span&gt;&lt;/font&gt;" style="text;html=1;align=center;verticalAlign=middle;resizable=0;points=[];autosize=1;strokeColor=none;fillColor=none;" vertex="1" parent="1">
          <mxGeometry x="45" y="600" width="50" height="30" as="geometry" />
        </mxCell>
        <mxCell id="_FwA0yZikW31yTaf9PdV-81" value="&lt;font style=&quot;font-size: 15px;&quot; face=&quot;Times New Roman&quot;&gt;数据&lt;/font&gt;&lt;div&gt;&lt;font style=&quot;font-size: 15px;&quot; face=&quot;Times New Roman&quot;&gt;准备&lt;/font&gt;&lt;/div&gt;&lt;div&gt;&lt;font style=&quot;font-size: 15px;&quot; face=&quot;Times New Roman&quot;&gt;阶段&lt;/font&gt;&lt;/div&gt;" style="rounded=1;whiteSpace=wrap;html=1;" vertex="1" parent="1">
          <mxGeometry x="-117.5" y="95" width="50" height="85" as="geometry" />
        </mxCell>
        <mxCell id="_FwA0yZikW31yTaf9PdV-82" value="" style="shape=singleArrow;direction=south;whiteSpace=wrap;html=1;arrowWidth=0.38666856553819445;arrowSize=0.4999992370605469;" vertex="1" parent="1">
          <mxGeometry x="-115" y="190" width="45" height="30" as="geometry" />
        </mxCell>
        <mxCell id="_FwA0yZikW31yTaf9PdV-83" value="&lt;font face=&quot;Times New Roman&quot;&gt;&lt;span style=&quot;font-size: 15px;&quot;&gt;知识&lt;/span&gt;&lt;/font&gt;&lt;div&gt;&lt;font face=&quot;Times New Roman&quot;&gt;&lt;span style=&quot;font-size: 15px;&quot;&gt;图谱&lt;/span&gt;&lt;/font&gt;&lt;/div&gt;&lt;div&gt;&lt;font face=&quot;Times New Roman&quot;&gt;&lt;span style=&quot;font-size: 15px;&quot;&gt;搭建&lt;/span&gt;&lt;/font&gt;&lt;/div&gt;&lt;div&gt;&lt;font face=&quot;Times New Roman&quot;&gt;&lt;span style=&quot;font-size: 15px;&quot;&gt;阶段&lt;/span&gt;&lt;/font&gt;&lt;/div&gt;" style="rounded=1;whiteSpace=wrap;html=1;" vertex="1" parent="1">
          <mxGeometry x="-120" y="230" width="50" height="80" as="geometry" />
        </mxCell>
        <mxCell id="_FwA0yZikW31yTaf9PdV-84" value="" style="shape=singleArrow;direction=south;whiteSpace=wrap;html=1;arrowWidth=0.38666856553819445;arrowSize=0.4999992370605469;" vertex="1" parent="1">
          <mxGeometry x="-115" y="320" width="45" height="30" as="geometry" />
        </mxCell>
        <mxCell id="_FwA0yZikW31yTaf9PdV-86" value="&lt;font face=&quot;Times New Roman&quot;&gt;&lt;span style=&quot;font-size: 15px;&quot;&gt;用户&lt;/span&gt;&lt;/font&gt;&lt;div&gt;&lt;font face=&quot;Times New Roman&quot;&gt;&lt;span style=&quot;font-size: 15px;&quot;&gt;问答&lt;/span&gt;&lt;/font&gt;&lt;br&gt;&lt;div&gt;&lt;font face=&quot;Times New Roman&quot;&gt;&lt;span style=&quot;font-size: 15px;&quot;&gt;阶段&lt;/span&gt;&lt;/font&gt;&lt;/div&gt;&lt;/div&gt;" style="rounded=1;whiteSpace=wrap;html=1;" vertex="1" parent="1">
          <mxGeometry x="-120" y="360" width="50" height="80" as="geometry" />
        </mxCell>
      </root>
    </mxGraphModel>
  </diagram>
</mxfile>
